<?xml version="1.0" standalone="no"?>
<!DOCTYPE svg PUBLIC "-//W3C//DTD SVG 20010904//EN"
 "http://www.w3.org/TR/2001/REC-SVG-20010904/DTD/svg10.dtd">
<svg version="1.0" xmlns="http://www.w3.org/2000/svg"
 width="1024.000000pt" height="1024.000000pt" viewBox="0 0 1024.000000 1024.000000"
 preserveAspectRatio="xMidYMid meet">

<g transform="translate(0.000000,1024.000000) scale(0.100000,-0.100000)"
fill="#000000" stroke="none">
<path d="M2360 8130 l0 -110 -145 0 -145 0 0 -155 0 -155 -135 0 -135 0 0
-1150 0 -1149 -132 -3 -133 -3 -3 -142 -3 -143 -174 0 -175 0 0 -290 0 -290
175 0 175 0 0 -135 0 -135 135 0 135 0 0 -1045 0 -1045 135 0 135 0 0 -145 0
-145 145 0 145 0 0 -100 0 -100 433 0 c239 0 436 2 438 4 2 2 3 126 1 275 l-3
272 -282 -1 -282 -1 -3 145 -3 146 -139 0 -140 0 -2 948 -3 947 -25 1 c-14 0
-78 1 -142 2 l-118 2 0 115 0 115 -120 0 -120 0 0 95 0 95 120 0 120 0 0 120
0 119 143 3 142 3 1 1140 0 1140 142 3 142 3 0 144 0 145 290 0 290 0 0 285 0
285 -440 0 -440 0 0 -110z"/>
<path d="M4460 8110 l0 -130 -165 0 -165 0 0 -145 0 -145 -155 0 -155 0 0
-270 0 -270 -120 0 -120 0 0 -405 0 -405 -150 0 -150 0 0 -120 0 -119 -141 -3
-141 -3 2 -1185 c1 -652 3 -1313 6 -1470 l4 -285 135 -3 134 -3 3 -127 3 -127
1838 -3 1837 -2 0 130 0 130 140 0 140 0 0 1475 0 1475 -130 0 -130 0 0 120 0
120 -170 0 -170 0 0 405 0 405 -100 0 -100 0 0 270 0 270 -160 0 -160 0 0 155
0 155 -165 0 -165 0 0 120 0 120 -665 0 -665 0 0 -130z m1280 -600 l0 -160
155 0 155 0 0 -505 0 -505 -925 0 -925 0 0 505 0 505 140 0 140 0 0 160 0 160
630 0 630 0 0 -160z m960 -2895 l0 -1175 -1570 0 -1570 0 0 1013 c-1 556 -3
1078 -6 1160 -3 81 -3 154 0 162 5 13 202 15 1576 15 l1570 0 0 -1175z"/>
<path d="M4830 5276 c0 -141 0 -144 -22 -150 -13 -3 -87 -6 -165 -6 l-143 0 0
-290 0 -290 160 0 160 0 0 -310 0 -310 300 0 300 0 0 310 0 310 170 0 170 0 0
290 0 290 -167 2 -168 3 1 148 0 147 -298 0 -298 0 0 -144z m410 -496 l0 -120
-95 0 -95 0 0 120 0 120 95 0 95 0 0 -120z"/>
<path d="M7010 7955 l0 -285 275 0 275 0 0 -145 0 -145 150 0 150 0 2 -1142 3
-1143 143 -3 142 -3 0 -119 0 -120 135 0 135 0 0 -95 0 -95 -135 0 -134 0 -3
-116 -3 -116 -138 -1 -138 -2 1 -948 0 -947 -155 0 -154 0 -3 -146 -3 -146
-270 -2 -270 -1 -3 -273 -2 -272 420 0 420 0 0 100 0 100 155 0 155 0 0 145 0
145 140 0 140 0 0 1045 0 1045 140 0 140 0 0 135 0 135 165 0 165 0 0 290 0
290 -165 0 -165 0 0 145 0 145 -140 0 -140 0 -2 1148 -3 1147 -137 3 -138 3 0
154 0 155 -157 0 -158 0 3 110 3 110 -420 0 -421 0 0 -285z"/>
</g>
</svg>
